ffmpeg version 5.0.1 Copyright (c) 2000-2022 the FFmpeg developers
  built with Apple clang version 13.0.0 (clang-1300.0.29.30)
  configuration: --prefix=/usr/local/Cellar/ffmpeg/5.0.1 --enable-shared --enable-pthreads --enable-version3 --cc=clang --host-cflags= --host-ldflags= --enable-ffplay --enable-gnutls --enable-gpl --enable-libaom --enable-libbluray --enable-libdav1d --enable-libmp3lame --enable-libopus --enable-librav1e --enable-librist --enable-librubberband --enable-libsnappy --enable-libsrt --enable-libtesseract --enable-libtheora --enable-libvidstab --enable-libvmaf --enable-libvorbis --enable-libvpx --enable-libwebp --enable-libx264 --enable-libx265 --enable-libxml2 --enable-libxvid --enable-lzma --enable-libfontconfig --enable-libfreetype --enable-frei0r --enable-libass --enable-libopencore-amrnb --enable-libopencore-amrwb --enable-libopenjpeg --enable-libspeex --enable-libsoxr --enable-libzmq --enable-libzimg --disable-libjack --disable-indev=jack --enable-videotoolbox
  libavutil      57. 17.100 / 57. 17.100
  libavcodec     59. 18.100 / 59. 18.100
  libavformat    59. 16.100 / 59. 16.100
  libavdevice    59.  4.100 / 59.  4.100
  libavfilter     8. 24.100 /  8. 24.100
  libswscale      6.  4.100 /  6.  4.100
  libswresample   4.  3.100 /  4.  3.100
  libpostproc    56.  3.100 / 56.  3.100
Guessed Channel Layout for Input Stream #0.0 : mono
Input #0, wav, from 'tests/unit_tests/resources/audio_3_utterances.wav':
  Duration: 00:00:08.31, bitrate: 256 kb/s
  Stream #0:0: Audio: pcm_s16le ([1][0][0][0] / 0x0001), 16000 Hz, mono, s16, 256 kb/s
Stream mapping:
  Stream #0:0 -> #0:0 (pcm_s16le (native) -> pcm_s16le (native))
Press [q] to stop, [?] for help
Output #0, null, to 'pipe:':
  Metadata:
    encoder         : Lavf59.16.100
  Stream #0:0: Audio: pcm_s16le, 16000 Hz, mono, s16, 256 kb/s
    Metadata:
      encoder         : Lavc59.18.100 pcm_s16le
size=N/A time=00:00:00.12 bitrate=N/A speed=6.4e+04x    
[silencedetect @ 0x7f8329d0c840] silence_start: 0
[silencedetect @ 0x7f8329d0c840] silence_end: 0.91625 | silence_duration: 0.91625
[silencedetect @ 0x7f8329d0c840] silence_start: 2.403
[silencedetect @ 0x7f8329d0c840] silence_end: 3.98744 | silence_duration: 1.58444
[silencedetect @ 0x7f8329d0c840] silence_start: 4.73894
[silencedetect @ 0x7f8329d0c840] silence_end: 6.31875 | silence_duration: 1.57981
[silencedetect @ 0x7f8329d0c840] silence_start: 7.40619
size=N/A time=00:00:08.30 bitrate=N/A speed=3.71e+03x    
video:0kB audio:260kB subtitle:0kB other streams:0kB global headers:0kB muxing overhead: unknown
[silencedetect @ 0x7f8329d0c840] silence_end: 8.308 | silence_duration: 0.901813
